<?xml version="1.0" encoding="UTF-8" standalone="no"?>
<!-- Created with Inkscape (http://www.inkscape.org/) -->

<svg
   width="349.99042mm"
   height="61.753208mm"
   viewBox="0 0 349.99042 61.753208"
   version="1.1"
   id="svg1"
   xml:space="preserve"
   xmlns="http://www.w3.org/2000/svg"
   xmlns:svg="http://www.w3.org/2000/svg"><defs
     id="defs1" /><g
     id="layer1"
     transform="translate(112.3509,-713.61944)"><path
       d="m 203.65762,714.31005 c -9.71717,0 -16.55948,2.3858 -20.52686,7.15814 -3.90986,4.71484 -5.86421,12.39123 -5.86421,23.02836 0,10.63712 1.95435,18.34131 5.86421,23.11363 3.96738,4.71484 10.80969,7.07286 20.52686,7.07286 h 24.49494 c 2.98989,0 5.31802,-0.83407 6.98547,-2.5015 1.66745,-1.66744 2.5015,-3.99559 2.5015,-6.98547 v -22.4251 h -19.49192 v 13.10974 c 0,2.52991 -1.26552,3.79541 -3.79543,3.79541 h -4.13969 c -4.82984,0 -8.19281,-1.03485 -10.09024,-3.10475 -1.89744,-2.12746 -2.84683,-6.15253 -2.84683,-12.07482 0,-5.92229 0.94939,-9.91855 2.84683,-11.98847 1.89743,-2.12743 5.2604,-3.19111 10.09024,-3.19111 h 18.54334 a 7.50346,7.50346 135 0 0 7.50346,-7.50346 v -7.50346 z"
       style="font-weight:800;font-size:42.3333px;font-family:Magistral;-inkscape-font-specification:'Magistral Ultra-Bold';fill:#497458;fill-opacity:1;stroke-width:0"
       id="path7" /><path
       d="m 70.319921,714.31005 v 41.57066 c 0,2.52991 1.265508,3.79541 3.795421,3.79541 H 96.45304 a 7.50346,7.50346 45 0 1 7.50346,7.50346 v 7.50346 H 60.31496 c -2.989898,0 -5.318026,-0.83407 -6.985469,-2.5015 -1.667443,-1.66744 -2.501503,-3.99559 -2.501503,-6.98547 v -50.88602 z"
       style="font-weight:800;font-size:42.3333px;font-family:Magistral;-inkscape-font-specification:'Magistral Ultra-Bold';fill:#497458;fill-opacity:1;stroke-width:0"
       id="path6" /><path
       d="m 1.8402117,714.31005 c -9.4296793,0 -14.1446537,5.28954 -14.1446537,15.86918 0,10.17716 3.3918009,16.18542 10.1765701,18.02536 l 23.3736859,6.55484 c 1.322456,0.4025 2.29963,0.80512 2.932107,1.2076 0.632479,0.40249 0.948594,1.00589 0.948594,1.81087 0,1.26495 -1.121343,1.89822 -3.363765,1.89822 H -4.197716 a 7.50346,7.50346 135 0 0 -7.50346,7.50346 v 7.50346 h 41.829644 c 5.347319,0 9.113953,-1.37979 11.298878,-4.13969 2.242423,-2.8174 3.363764,-6.98666 3.363764,-12.50647 0,-5.23232 -0.949394,-9.22858 -2.846829,-11.98846 -1.897435,-2.81742 -5.117291,-4.82943 -9.659636,-6.0369 l -20.354193,-5.4336 c -1.667443,-0.40249 -2.9318983,-0.83394 -3.7943683,-1.29392 -0.862471,-0.45999 -1.293916,-1.14989 -1.293916,-2.06984 0,-1.26496 1.379784,-1.89719 4.1396923,-1.89719 h 23.20102 c 4.144047,0 7.50346,-3.35941 7.50346,-7.50346 v -7.50346 z"
       style="font-weight:800;font-size:42.3333px;font-family:Magistral;-inkscape-font-specification:'Magistral Ultra-Bold';fill:#b2c9a5;fill-opacity:1;stroke-width:0"
       id="path5" /><path
       d="m -28.087814,714.31005 h 9.74544 v 50.62755 c 0,5.38226 -4.363182,9.74544 -9.74544,9.74544 h -9.745439 v -50.62755 a 9.745439,9.745439 135 0 1 9.745439,-9.74544 z"
       style="font-weight:800;font-size:42.3333px;font-family:Magistral;-inkscape-font-specification:'Magistral Ultra-Bold';fill:#b2c9a5;fill-opacity:1;stroke-width:0"
       id="path4" /><path
       d="m 138.88594,713.6194 c -6.61227,0 -11.9018,0.40262 -15.86916,1.20758 -3.90987,0.74749 -7.24506,2.27143 -10.00496,4.57136 -2.75991,2.24243 -4.68542,5.34693 -5.77789,9.3143 -1.03496,3.96738 -1.5529,9.22912 -1.5529,15.78391 0,6.55478 0.51794,11.81548 1.5529,15.78284 1.09247,3.96736 3.01798,7.10072 5.77789,9.40064 2.7599,2.24242 6.09509,3.76638 10.00496,4.57136 3.96736,0.74747 9.25689,1.12124 15.86916,1.12124 6.61228,0 11.87404,-0.37377 15.78391,-1.12124 3.96736,-0.80498 7.33034,-2.32894 10.09023,-4.57136 2.75991,-2.29992 4.65764,-5.43328 5.6926,-9.40064 1.09247,-3.96736 1.63926,-9.22806 1.63926,-15.78284 0,-6.55479 -0.54679,-11.81653 -1.63926,-15.78391 -1.03496,-3.96737 -2.93269,-7.07187 -5.6926,-9.3143 -2.75989,-2.29993 -6.12287,-3.82387 -10.09023,-4.57136 -3.90987,-0.80496 -9.17163,-1.20758 -15.78391,-1.20758 z m 0,15.00691 c 5.05984,0 8.51036,1.20784 10.3503,3.62277 1.89742,2.41491 2.84576,6.49767 2.84576,12.24747 0,5.7498 -0.94834,9.83151 -2.84576,12.24642 -1.83994,2.41491 -5.29046,3.62274 -10.3503,3.62274 -5.05981,0 -8.53813,-1.20783 -10.43556,-3.62274 -1.83992,-2.41491 -2.75944,-6.49662 -2.75944,-12.24642 0,-5.7498 0.91952,-9.83256 2.75944,-12.24747 1.89743,-2.41493 5.37575,-3.62277 10.43556,-3.62277 z"
       style="font-weight:800;font-size:42.3333px;font-family:Magistral;-inkscape-font-specification:'Magistral Ultra-Bold';fill:#497458;fill-opacity:1;stroke-width:0"
       id="path3" /><path
       d="m -98.810562,713.6194 c 5.864801,0 10.119497,1.8689 12.764406,5.60627 l 21.993438,31.04876 c 0.689975,0.97748 1.235704,1.46657 1.638189,1.46657 0.632478,0 0.948593,-0.48909 0.948593,-1.46657 v -28.46092 a 7.503456,7.503456 135 0 1 7.503456,-7.50346 h 7.503457 v 50.2817 c 0,0.68996 -0.05662,1.35105 -0.171604,1.98351 -0.0575,0.63246 -0.345831,1.52421 -0.863315,2.67416 -0.459985,1.14998 -1.121044,2.15598 -1.983515,3.01844 -0.86247,0.80498 -2.155758,1.52369 -3.880699,2.15619 -1.724941,0.63247 -3.794623,0.94858 -6.20954,0.94858 -2.817403,0 -5.2897,-0.37377 -7.417127,-1.12124 -2.127426,-0.80498 -4.025161,-2.41439 -5.692605,-4.8293 l -21.820773,-30.79082 c -0.689977,-0.97746 -1.235705,-1.46552 -1.63819,-1.46552 -0.804972,0 -1.207586,0.57456 -1.207586,1.72453 v 28.2893 a 7.503463,7.503463 135 0 1 -7.503463,7.50346 h -7.50346 v -50.36908 c 0,-3.67989 1.26446,-6.38178 3.79438,-8.10672 2.58741,-1.72495 5.8361,-2.58784 9.745962,-2.58784 z"
       style="font-weight:800;font-size:42.3333px;font-family:Magistral;-inkscape-font-specification:'Magistral Ultra-Bold';fill:#b2c9a5;fill-opacity:1;stroke-width:0"
       id="path2" /></g></svg>
